<svg width="38" height="37" viewBox="0 0 38 37" fill="none" xmlns="http://www.w3.org/2000/svg">
<path d="M19.1496 22.0065L15.6717 20.1097C15.2176 20.5951 14.628 20.9327 13.9796 21.0787C13.3311 21.2246 12.6537 21.1721 12.0355 20.9281C11.4172 20.684 10.8867 20.2596 10.5128 19.71C10.1389 19.1604 9.93896 18.5111 9.93896 17.8464C9.93896 17.1817 10.1389 16.5324 10.5128 15.9828C10.8867 15.4332 11.4172 15.0088 12.0355 14.7647C12.6537 14.5207 13.3311 14.4682 13.9796 14.6141C14.628 14.7601 15.2176 15.0977 15.6717 15.5831L19.1505 13.6864C18.9533 12.9044 19.048 12.0774 19.4169 11.3603C19.7859 10.6433 20.4037 10.0854 21.1545 9.79124C21.9054 9.4971 22.7378 9.48692 23.4956 9.76259C24.2534 10.0383 24.8847 10.5809 25.2711 11.2887C25.6575 11.9965 25.7724 12.821 25.5944 13.6075C25.4164 14.394 24.9576 15.0886 24.3041 15.5611C23.6506 16.0335 22.8472 16.2514 22.0445 16.1739C21.2418 16.0964 20.495 15.7288 19.944 15.14L16.4652 17.0368C16.5987 17.568 16.5987 18.124 16.4652 18.6552L19.944 20.552C20.4953 19.9635 21.2423 19.5962 22.045 19.5191C22.8477 19.442 23.651 19.6603 24.3042 20.133C24.9575 20.6058 25.4159 21.3006 25.5936 22.0872C25.7713 22.8738 25.6559 23.6981 25.2692 24.4058C24.8826 25.1134 24.2511 25.6557 23.4931 25.9311C22.7352 26.2064 21.9029 26.1959 21.1522 25.9014C20.4014 25.607 19.7839 25.0489 19.4152 24.3317C19.0466 23.6145 18.9521 22.7875 19.1496 22.0056V22.0065ZM13.2523 19.5026C13.6916 19.5026 14.113 19.328 14.4236 19.0174C14.7343 18.7067 14.9088 18.2853 14.9088 17.846C14.9088 17.4066 14.7343 16.9853 14.4236 16.6746C14.113 16.364 13.6916 16.1894 13.2523 16.1894C12.8129 16.1894 12.3916 16.364 12.0809 16.6746C11.7702 16.9853 11.5957 17.4066 11.5957 17.846C11.5957 18.2853 11.7702 18.7067 12.0809 19.0174C12.3916 19.328 12.8129 19.5026 13.2523 19.5026ZM22.3634 14.5329C22.8027 14.5329 23.2241 14.3583 23.5347 14.0477C23.8454 13.737 24.0199 13.3156 24.0199 12.8763C24.0199 12.4369 23.8454 12.0156 23.5347 11.7049C23.2241 11.3943 22.8027 11.2197 22.3634 11.2197C21.924 11.2197 21.5027 11.3943 21.192 11.7049C20.8813 12.0156 20.7068 12.4369 20.7068 12.8763C20.7068 13.3156 20.8813 13.737 21.192 14.0477C21.5027 14.3583 21.924 14.5329 22.3634 14.5329ZM22.3634 24.4722C22.8027 24.4722 23.2241 24.2977 23.5347 23.9871C23.8454 23.6764 24.0199 23.255 24.0199 22.8157C24.0199 22.3763 23.8454 21.955 23.5347 21.6443C23.2241 21.3336 22.8027 21.1591 22.3634 21.1591C21.924 21.1591 21.5027 21.3336 21.192 21.6443C20.8813 21.955 20.7068 22.3763 20.7068 22.8157C20.7068 23.255 20.8813 23.6764 21.192 23.9871C21.5027 24.2977 21.924 24.4722 22.3634 24.4722Z" fill="white"/>
<path d="M36.4444 18.5029C36.4444 28.2587 28.4771 36.1775 18.6364 36.1775C8.79561 36.1775 0.828283 28.2587 0.828283 18.5029C0.828283 8.74708 8.79561 0.828283 18.6364 0.828283C28.4771 0.828283 36.4444 8.74708 36.4444 18.5029Z" stroke="white" stroke-width="1.65657"/>
</svg>
